<?xml version="1.0" standalone="no"?>
<!DOCTYPE svg PUBLIC "-//W3C//DTD SVG 20010904//EN"
 "http://www.w3.org/TR/2001/REC-SVG-20010904/DTD/svg10.dtd">
<svg version="1.0" xmlns="http://www.w3.org/2000/svg"
 width="225.000000pt" height="225.000000pt" viewBox="0 0 225.000000 225.000000"
 preserveAspectRatio="xMidYMid meet">

<g transform="translate(0.000000,225.000000) scale(0.100000,-0.100000)"
fill="#000000" stroke="none">
<path d="M958 2165 c-336 -53 -628 -270 -778 -580 -169 -346 -138 -744 81
-1060 289 -419 847 -570 1306 -355 593 278 794 1017 423 1554 -230 333 -629
503 -1032 441z m397 -154 c175 -46 357 -162 475 -303 71 -87 151 -242 181
-353 29 -106 32 -335 6 -438 -76 -305 -289 -542 -584 -653 l-63 -24 0 193 c0
200 -12 279 -45 307 -25 21 -18 25 55 38 241 41 360 191 360 452 0 101 -20
170 -69 239 -21 29 -22 36 -12 82 12 56 -1 164 -23 195 -12 15 -18 16 -62 5
-27 -7 -83 -30 -125 -52 l-77 -40 -108 16 c-110 17 -182 15 -310 -6 l-61 -10
-34 34 c-55 55 -208 89 -238 53 -24 -29 -35 -121 -23 -187 11 -62 11 -63 -18
-108 -42 -62 -60 -131 -60 -222 0 -138 36 -252 105 -328 48 -53 154 -106 247
-122 40 -7 75 -14 77 -15 2 -2 -6 -15 -18 -29 -11 -15 -23 -43 -27 -62 -8 -42
-48 -63 -121 -63 -66 0 -110 25 -161 93 -50 66 -105 107 -143 107 -45 0 -45
-29 1 -69 23 -20 59 -71 83 -116 37 -69 48 -82 91 -104 42 -22 63 -25 143 -26
l93 0 0 -128 0 -128 -22 7 c-305 93 -545 343 -630 654 -29 109 -32 326 -5 433
87 347 359 612 707 688 112 25 300 20 415 -10z"/>
</g>
</svg>
